<mxfile host="app.diagrams.net" modified="2024-03-21T03:17:49.761Z" agent="Mozilla/5.0 (Windows NT 10.0; Win64; x64) AppleWebKit/537.36 (KHTML, like Gecko) Chrome/122.0.0.0 Safari/537.36" etag="7xhkno8tW7chhuCKoR28" version="24.0.7" type="device">
  <diagram name="Página-1" id="rmRWuEc1I-XX4NKy5wWH">
    <mxGraphModel dx="989" dy="509" grid="1" gridSize="10" guides="1" tooltips="1" connect="1" arrows="1" fold="1" page="1" pageScale="1" pageWidth="827" pageHeight="1169" math="0" shadow="0">
      <root>
        <mxCell id="0" />
        <mxCell id="1" parent="0" />
        <mxCell id="of7UXciw4HJ2_zekE2xp-21" value="" style="html=1;points=[[0,0,0,0,5],[0,1,0,0,-5],[1,0,0,0,5],[1,1,0,0,-5]];perimeter=orthogonalPerimeter;outlineConnect=0;targetShapes=umlLifeline;portConstraint=eastwest;newEdgeStyle={&quot;curved&quot;:0,&quot;rounded&quot;:0};" vertex="1" parent="1">
          <mxGeometry x="265" y="130" width="10" height="190" as="geometry" />
        </mxCell>
        <mxCell id="of7UXciw4HJ2_zekE2xp-22" value="" style="html=1;points=[[0,0,0,0,5],[0,1,0,0,-5],[1,0,0,0,5],[1,1,0,0,-5]];perimeter=orthogonalPerimeter;outlineConnect=0;targetShapes=umlLifeline;portConstraint=eastwest;newEdgeStyle={&quot;curved&quot;:0,&quot;rounded&quot;:0};" vertex="1" parent="1">
          <mxGeometry x="425" y="130" width="10" height="190" as="geometry" />
        </mxCell>
        <mxCell id="of7UXciw4HJ2_zekE2xp-23" value="" style="html=1;points=[[0,0,0,0,5],[0,1,0,0,-5],[1,0,0,0,5],[1,1,0,0,-5]];perimeter=orthogonalPerimeter;outlineConnect=0;targetShapes=umlLifeline;portConstraint=eastwest;newEdgeStyle={&quot;curved&quot;:0,&quot;rounded&quot;:0};" vertex="1" parent="1">
          <mxGeometry x="580" y="130" width="10" height="190" as="geometry" />
        </mxCell>
        <mxCell id="of7UXciw4HJ2_zekE2xp-24" value="" style="html=1;points=[[0,0,0,0,5],[0,1,0,0,-5],[1,0,0,0,5],[1,1,0,0,-5]];perimeter=orthogonalPerimeter;outlineConnect=0;targetShapes=umlLifeline;portConstraint=eastwest;newEdgeStyle={&quot;curved&quot;:0,&quot;rounded&quot;:0};" vertex="1" parent="1">
          <mxGeometry x="710" y="130" width="10" height="190" as="geometry" />
        </mxCell>
        <mxCell id="of7UXciw4HJ2_zekE2xp-31" value="" style="endArrow=none;dashed=1;html=1;rounded=0;" edge="1" parent="1">
          <mxGeometry width="50" height="50" relative="1" as="geometry">
            <mxPoint x="270" y="130" as="sourcePoint" />
            <mxPoint x="270" y="90" as="targetPoint" />
          </mxGeometry>
        </mxCell>
        <mxCell id="of7UXciw4HJ2_zekE2xp-32" value="TRANSACTION" style="rounded=0;whiteSpace=wrap;html=1;" vertex="1" parent="1">
          <mxGeometry x="210" y="30" width="120" height="60" as="geometry" />
        </mxCell>
        <mxCell id="of7UXciw4HJ2_zekE2xp-33" value="" style="endArrow=none;dashed=1;html=1;rounded=0;" edge="1" parent="1">
          <mxGeometry width="50" height="50" relative="1" as="geometry">
            <mxPoint x="430" y="130" as="sourcePoint" />
            <mxPoint x="430" y="90" as="targetPoint" />
          </mxGeometry>
        </mxCell>
        <mxCell id="of7UXciw4HJ2_zekE2xp-34" value="KAFKA" style="rounded=0;whiteSpace=wrap;html=1;" vertex="1" parent="1">
          <mxGeometry x="370" y="30" width="120" height="60" as="geometry" />
        </mxCell>
        <mxCell id="of7UXciw4HJ2_zekE2xp-35" value="" style="endArrow=none;dashed=1;html=1;rounded=0;" edge="1" parent="1">
          <mxGeometry width="50" height="50" relative="1" as="geometry">
            <mxPoint x="585" y="130" as="sourcePoint" />
            <mxPoint x="585" y="90" as="targetPoint" />
          </mxGeometry>
        </mxCell>
        <mxCell id="of7UXciw4HJ2_zekE2xp-36" value="ANTIFRAUDE" style="rounded=0;whiteSpace=wrap;html=1;" vertex="1" parent="1">
          <mxGeometry x="525" y="30" width="120" height="60" as="geometry" />
        </mxCell>
        <mxCell id="of7UXciw4HJ2_zekE2xp-37" value="BD" style="shape=cylinder3;whiteSpace=wrap;html=1;boundedLbl=1;backgroundOutline=1;size=15;" vertex="1" parent="1">
          <mxGeometry x="685" y="20" width="60" height="80" as="geometry" />
        </mxCell>
        <mxCell id="of7UXciw4HJ2_zekE2xp-38" value="" style="endArrow=none;dashed=1;html=1;rounded=0;" edge="1" parent="1">
          <mxGeometry width="50" height="50" relative="1" as="geometry">
            <mxPoint x="715" y="130" as="sourcePoint" />
            <mxPoint x="714.58" y="100" as="targetPoint" />
          </mxGeometry>
        </mxCell>
        <mxCell id="of7UXciw4HJ2_zekE2xp-39" value="" style="endArrow=classic;html=1;rounded=0;" edge="1" parent="1">
          <mxGeometry width="50" height="50" relative="1" as="geometry">
            <mxPoint x="275" y="150" as="sourcePoint" />
            <mxPoint x="710" y="150" as="targetPoint" />
          </mxGeometry>
        </mxCell>
        <mxCell id="of7UXciw4HJ2_zekE2xp-42" value="Guarda la transacción con status pendiente" style="edgeLabel;html=1;align=center;verticalAlign=middle;resizable=0;points=[];fontSize=7;" vertex="1" connectable="0" parent="of7UXciw4HJ2_zekE2xp-39">
          <mxGeometry x="-0.0268" y="6" relative="1" as="geometry">
            <mxPoint x="-6" y="-4" as="offset" />
          </mxGeometry>
        </mxCell>
        <mxCell id="of7UXciw4HJ2_zekE2xp-43" value="User" style="shape=umlActor;verticalLabelPosition=bottom;verticalAlign=top;html=1;outlineConnect=0;" vertex="1" parent="1">
          <mxGeometry x="100" y="30" width="30" height="60" as="geometry" />
        </mxCell>
        <mxCell id="of7UXciw4HJ2_zekE2xp-45" value="" style="html=1;points=[[0,0,0,0,5],[0,1,0,0,-5],[1,0,0,0,5],[1,1,0,0,-5]];perimeter=orthogonalPerimeter;outlineConnect=0;targetShapes=umlLifeline;portConstraint=eastwest;newEdgeStyle={&quot;curved&quot;:0,&quot;rounded&quot;:0};" vertex="1" parent="1">
          <mxGeometry x="110" y="130" width="10" height="80" as="geometry" />
        </mxCell>
        <mxCell id="of7UXciw4HJ2_zekE2xp-49" value="" style="endArrow=none;dashed=1;html=1;rounded=0;" edge="1" parent="1" source="of7UXciw4HJ2_zekE2xp-45">
          <mxGeometry width="50" height="50" relative="1" as="geometry">
            <mxPoint x="114.58000000000001" y="120" as="sourcePoint" />
            <mxPoint x="115" y="90" as="targetPoint" />
          </mxGeometry>
        </mxCell>
        <mxCell id="of7UXciw4HJ2_zekE2xp-50" value="" style="endArrow=classic;html=1;rounded=0;" edge="1" parent="1" target="of7UXciw4HJ2_zekE2xp-21">
          <mxGeometry width="50" height="50" relative="1" as="geometry">
            <mxPoint x="120" y="140" as="sourcePoint" />
            <mxPoint x="260" y="140" as="targetPoint" />
          </mxGeometry>
        </mxCell>
        <mxCell id="of7UXciw4HJ2_zekE2xp-51" value="Crea Transacción" style="edgeLabel;html=1;align=center;verticalAlign=middle;resizable=0;points=[];fontSize=7;" vertex="1" connectable="0" parent="of7UXciw4HJ2_zekE2xp-50">
          <mxGeometry x="-0.0102" y="-1" relative="1" as="geometry">
            <mxPoint as="offset" />
          </mxGeometry>
        </mxCell>
        <mxCell id="of7UXciw4HJ2_zekE2xp-52" value="" style="endArrow=classic;html=1;rounded=0;" edge="1" parent="1" target="of7UXciw4HJ2_zekE2xp-22">
          <mxGeometry width="50" height="50" relative="1" as="geometry">
            <mxPoint x="275" y="169.76" as="sourcePoint" />
            <mxPoint x="710" y="169.76" as="targetPoint" />
          </mxGeometry>
        </mxCell>
        <mxCell id="of7UXciw4HJ2_zekE2xp-53" value="Envía transacción al topico&amp;nbsp;" style="edgeLabel;html=1;align=center;verticalAlign=middle;resizable=0;points=[];fontSize=7;" vertex="1" connectable="0" parent="of7UXciw4HJ2_zekE2xp-52">
          <mxGeometry x="-0.0268" y="6" relative="1" as="geometry">
            <mxPoint as="offset" />
          </mxGeometry>
        </mxCell>
        <mxCell id="of7UXciw4HJ2_zekE2xp-59" value="" style="endArrow=classic;html=1;rounded=0;" edge="1" parent="1">
          <mxGeometry width="50" height="50" relative="1" as="geometry">
            <mxPoint x="435" y="179.76" as="sourcePoint" />
            <mxPoint x="580" y="180" as="targetPoint" />
          </mxGeometry>
        </mxCell>
        <mxCell id="of7UXciw4HJ2_zekE2xp-60" value="Envía transacción al consumer" style="edgeLabel;html=1;align=center;verticalAlign=middle;resizable=0;points=[];fontSize=7;" vertex="1" connectable="0" parent="of7UXciw4HJ2_zekE2xp-59">
          <mxGeometry x="-0.0268" y="6" relative="1" as="geometry">
            <mxPoint as="offset" />
          </mxGeometry>
        </mxCell>
        <mxCell id="of7UXciw4HJ2_zekE2xp-61" value="" style="endArrow=classic;html=1;rounded=0;" edge="1" parent="1">
          <mxGeometry width="50" height="50" relative="1" as="geometry">
            <mxPoint x="590" y="200" as="sourcePoint" />
            <mxPoint x="590" y="220" as="targetPoint" />
            <Array as="points">
              <mxPoint x="630" y="200" />
              <mxPoint x="630" y="220" />
            </Array>
          </mxGeometry>
        </mxCell>
        <mxCell id="of7UXciw4HJ2_zekE2xp-62" value="Valida la Transacción" style="edgeLabel;html=1;align=center;verticalAlign=middle;resizable=0;points=[];fontSize=7;" vertex="1" connectable="0" parent="of7UXciw4HJ2_zekE2xp-61">
          <mxGeometry x="-0.5838" y="3" relative="1" as="geometry">
            <mxPoint x="29" y="-7" as="offset" />
          </mxGeometry>
        </mxCell>
        <mxCell id="of7UXciw4HJ2_zekE2xp-63" value="" style="endArrow=classic;html=1;rounded=0;" edge="1" parent="1" source="of7UXciw4HJ2_zekE2xp-23">
          <mxGeometry width="50" height="50" relative="1" as="geometry">
            <mxPoint x="575" y="250" as="sourcePoint" />
            <mxPoint x="440" y="250" as="targetPoint" />
          </mxGeometry>
        </mxCell>
        <mxCell id="of7UXciw4HJ2_zekE2xp-64" value="Envía transacción validada al topico" style="edgeLabel;html=1;align=center;verticalAlign=middle;resizable=0;points=[];fontSize=7;" vertex="1" connectable="0" parent="of7UXciw4HJ2_zekE2xp-63">
          <mxGeometry x="-0.0268" y="6" relative="1" as="geometry">
            <mxPoint y="4" as="offset" />
          </mxGeometry>
        </mxCell>
        <mxCell id="of7UXciw4HJ2_zekE2xp-65" value="" style="endArrow=classic;html=1;rounded=0;" edge="1" parent="1">
          <mxGeometry width="50" height="50" relative="1" as="geometry">
            <mxPoint x="425" y="280" as="sourcePoint" />
            <mxPoint x="280" y="280" as="targetPoint" />
          </mxGeometry>
        </mxCell>
        <mxCell id="of7UXciw4HJ2_zekE2xp-66" value="Envía transacción validada al consumer" style="edgeLabel;html=1;align=center;verticalAlign=middle;resizable=0;points=[];fontSize=7;" vertex="1" connectable="0" parent="of7UXciw4HJ2_zekE2xp-65">
          <mxGeometry x="-0.0268" y="6" relative="1" as="geometry">
            <mxPoint as="offset" />
          </mxGeometry>
        </mxCell>
        <mxCell id="of7UXciw4HJ2_zekE2xp-67" value="" style="endArrow=classic;html=1;rounded=0;exitX=1;exitY=1;exitDx=0;exitDy=-5;exitPerimeter=0;" edge="1" parent="1" source="of7UXciw4HJ2_zekE2xp-21" target="of7UXciw4HJ2_zekE2xp-24">
          <mxGeometry width="50" height="50" relative="1" as="geometry">
            <mxPoint x="290" y="350" as="sourcePoint" />
            <mxPoint x="700" y="310" as="targetPoint" />
          </mxGeometry>
        </mxCell>
        <mxCell id="of7UXciw4HJ2_zekE2xp-68" value="Actualiza la transacción con el status recibido de la validiación" style="edgeLabel;html=1;align=center;verticalAlign=middle;resizable=0;points=[];fontSize=7;" vertex="1" connectable="0" parent="of7UXciw4HJ2_zekE2xp-67">
          <mxGeometry x="0.0049" y="-1" relative="1" as="geometry">
            <mxPoint as="offset" />
          </mxGeometry>
        </mxCell>
      </root>
    </mxGraphModel>
  </diagram>
</mxfile>
